<?xml version="1.0" encoding="UTF-8"?>
<svg version="1.1" xmlns="http://www.w3.org/2000/svg" width="512" height="512">
<path d="M0 0 C1.42637115 -0.00668677 1.42637115 -0.00668677 2.88155788 -0.01350862 C4.44412283 -0.01323207 4.44412283 -0.01323207 6.03825474 -0.01294994 C7.14730988 -0.01662663 8.25636501 -0.02030332 9.39902788 -0.02409142 C13.12899963 -0.03513672 16.85894352 -0.03897359 20.58892918 -0.04278088 C23.25804911 -0.04904499 25.92716606 -0.05567901 28.59628391 -0.0626936 C36.61699316 -0.08244684 44.63770365 -0.09252401 52.65843114 -0.10142139 C56.43881347 -0.10580725 60.21919439 -0.11117339 63.99957561 -0.11641026 C76.57300971 -0.13342346 89.14644294 -0.1479156 101.71988678 -0.155159 C104.98206108 -0.15706879 108.24423537 -0.15898914 111.50640965 -0.16094494 C112.72255833 -0.16167055 112.72255833 -0.16167055 113.96327568 -0.16241082 C127.08456475 -0.17070349 140.20576243 -0.19602705 153.32701164 -0.22852562 C166.80938082 -0.26164523 180.29170365 -0.27961229 193.77411371 -0.28280324 C201.3394211 -0.2849641 208.90459531 -0.29365009 216.46986294 -0.31926441 C222.91577541 -0.34103874 229.36152237 -0.34898904 235.80746745 -0.33929763 C239.09221054 -0.33477188 242.37654358 -0.33874771 245.66125393 -0.35605907 C266.00854805 -0.45726029 281.59736541 0.80469401 297.09307957 15.44672108 C307.30131966 26.22006017 312.39031098 39.55241884 312.47345066 54.28583241 C312.48162815 55.09301212 312.48980564 55.90019184 312.49823093 56.73183155 C312.52296892 59.39329779 312.53956967 62.05471116 312.55401707 64.71625233 C312.55934074 65.628417 312.56466442 66.54058167 312.57014942 67.48038769 C312.59682855 72.30712892 312.61622152 77.13384474 312.63067722 81.96063709 C312.64402082 85.94622187 312.67188871 89.93129522 312.71270847 93.91669178 C312.76210138 98.7400709 312.78680579 103.56298597 312.7939043 108.38660717 C312.8006023 110.21937285 312.81578645 112.05212875 312.83979511 113.88474941 C312.87155341 116.45518629 312.87146821 119.02384315 312.86407566 121.59442616 C312.880481 122.34327076 312.89688633 123.09211536 312.9137888 123.86365223 C312.8456138 129.68712552 310.8688798 133.58563096 307.28057957 138.13422108 C303.2488717 141.60596951 298.48891947 142.27740568 293.28057957 142.13422108 C288.04065341 140.56224323 284.77661774 138.32946688 281.28057957 134.13422108 C279.11294482 129.92269417 278.99854324 125.98915742 279.02520847 121.34979725 C279.01977779 120.1975491 279.01977779 120.1975491 279.0142374 119.0220232 C279.00736225 117.35950054 279.00483443 115.69695539 279.00618458 114.03441906 C279.00715283 111.39788 278.99417168 108.76174527 278.97720432 106.12526417 C278.93102706 98.63112997 278.90633701 91.13703764 278.89972019 83.642766 C278.89469112 79.05269102 278.8703706 74.46303856 278.8343935 69.87310696 C278.82462776 68.12973352 278.82224587 66.38630172 278.82756519 64.64290905 C278.83467699 62.19709319 278.81727052 59.75252649 278.79473972 57.3068285 C278.80291218 56.59538685 278.81108463 55.8839452 278.81950474 55.15094471 C278.72301097 49.22515193 276.93017781 43.94270512 272.83336926 39.60022736 C265.47774393 33.2478283 258.26564109 32.98259505 248.94125462 33.01396656 C247.54311521 33.01268492 247.54311521 33.01268492 246.11673057 33.01137739 C242.99831293 33.00973232 239.87994927 33.01522807 236.7615366 33.02069569 C234.52422684 33.02097779 232.28691698 33.02081936 230.04960728 33.02025318 C223.97783407 33.01996613 217.90608059 33.02584808 211.83431196 33.03282714 C205.48818563 33.03907591 199.14205885 33.03966569 192.79592991 33.04085255 C182.14497591 33.04360809 171.49402971 33.04985547 160.84307957 33.05878162 C149.87400441 33.06796481 138.90493123 33.07504121 127.935853 33.07928944 C127.25938135 33.07955216 126.58290969 33.07981488 125.8859389 33.08008557 C122.49217854 33.08139063 119.09841817 33.08265434 115.70465779 33.08389747 C87.56329335 33.09425916 59.42193691 33.11194243 31.28057957 33.13422108 C32.05939487 33.57897785 32.83821018 34.02373463 33.64062595 34.48196888 C36.59905794 36.17157491 39.55737702 37.86137832 42.51562595 39.55130482 C43.78307925 40.27529852 45.05057434 40.99921908 46.31811619 41.72305775 C64.29241792 51.98758827 82.22089694 62.32952856 100.0842905 72.78607655 C106.73586274 76.67181087 113.41913572 80.49803437 120.11749363 84.30218983 C166.60010736 110.70651479 166.60010736 110.70651479 172.86374474 132.17577553 C174.39796065 137.96002547 174.6947122 143.33064906 174.64134312 149.28966236 C174.64390639 150.3567011 174.64646967 151.42373983 174.64911062 152.52311307 C174.65401871 156.06836362 174.63760458 159.61318024 174.62115574 163.158391 C174.62030883 165.71170511 174.62078586 168.26501994 174.62248325 170.81833363 C174.62316454 176.29994297 174.61470236 181.78141469 174.59776974 187.26299572 C174.57330467 195.18824003 174.56556682 203.11343265 174.56180576 211.03871063 C174.555253 223.89943435 174.53532388 236.76010073 174.50689793 249.62079334 C174.47932684 262.10776961 174.45810822 274.59473025 174.44537449 287.08173084 C174.44419223 288.23784369 174.44419223 288.23784369 174.44298609 289.41731235 C174.43907075 293.28420972 174.43527968 297.15110721 174.43155038 301.01800478 C174.40049111 333.05678521 174.3476875 365.09549515 174.28057957 397.13422108 C185.74676671 397.09612394 197.21262835 397.03670332 208.6785593 396.95031834 C214.00310565 396.91086739 219.3274872 396.87866712 224.6521616 396.86322498 C229.7941138 396.84804286 234.93561287 396.8135693 240.07736301 396.76591206 C242.03563586 396.75111437 243.99397341 396.74318099 245.95230198 396.74233723 C248.70283998 396.73996097 251.45213241 396.71282863 254.20245457 396.68011951 C255.00590809 396.68514988 255.80936161 396.69018024 256.63716221 396.69536304 C262.83979593 396.58179422 268.12203168 394.97459172 272.81103611 390.75793552 C277.60041914 385.41938176 278.52758491 380.0028183 278.5518198 373.03070545 C278.55704655 372.34696354 278.56227329 371.66322163 278.56765842 370.95876026 C278.57784736 369.48397059 278.58366986 368.00914547 278.58553982 366.53432178 C278.58922293 364.19648136 278.60600097 361.8590578 278.62629795 359.52130604 C278.6815322 352.87819649 278.7123983 346.23502727 278.7368784 339.59174061 C278.75278528 335.51926747 278.78303149 331.44709364 278.82164288 327.37477589 C278.83325962 325.82792311 278.83922293 324.28101677 278.839324 322.73412037 C278.83951686 320.56834236 278.85783966 318.40338645 278.8799448 316.2377367 C278.88501545 315.00785023 278.8900861 313.77796375 278.8953104 312.51080799 C279.39439688 308.1367002 280.80006834 304.75738572 283.78057957 301.48968983 C289.27579305 297.21086474 293.49570864 296.50577677 300.28057957 297.13422108 C305.55380109 298.95956699 308.07749042 301.74141311 311.28057957 306.13422108 C312.44532071 309.62844449 312.42191099 312.38923974 312.44171238 316.07733631 C312.44667728 316.7802631 312.45164219 317.48318989 312.45675755 318.20741749 C312.47137294 320.53589326 312.47818365 322.86430068 312.48370457 325.19281483 C312.48946093 326.81887786 312.4952186 328.44494089 312.50097752 330.07100391 C312.51148876 333.48652938 312.51732917 336.90203132 312.52081394 340.31757069 C312.52626857 344.66481123 312.55023039 349.01173378 312.5787859 353.35887527 C312.59755103 356.72293931 312.60262541 360.0869293 312.60414982 363.45104122 C312.60715077 365.0515976 312.6150913 366.65215349 312.628335 368.25265789 C312.76539773 386.10587223 309.39991574 401.46803443 296.87017918 414.89569569 C284.85788619 426.91198278 270.28648473 430.43698094 253.72929764 430.48230839 C250.81396234 430.47387869 247.89895308 430.45080499 244.98370457 430.42718983 C242.93819587 430.42158456 240.89268311 430.41731887 238.84716892 430.41432667 C233.50096326 430.40295116 228.15500771 430.37354782 222.80889988 430.34021473 C217.33855668 430.30935544 211.86817249 430.29578764 206.39776707 430.28070545 C195.69192888 430.24867027 184.98627514 430.19756357 174.28057957 430.13422108 C174.30152683 431.21727528 174.3224741 432.30032948 174.34405613 433.4162035 C174.41732943 437.49581764 174.46269125 441.57537569 174.50030613 445.65546131 C174.52022529 447.4097931 174.54737091 449.16406024 174.58233738 450.91815662 C174.87784165 466.14097223 173.281729 478.30473466 164.28057957 491.13422108 C163.86421238 491.74652576 163.44784519 492.35883045 163.01886082 492.98968983 C155.81589903 502.44222527 142.90854169 510.17294159 131.28057957 512.13422108 C127.56911921 512.51192048 123.88499715 512.65098264 120.15557957 512.69672108 C119.26169529 512.71162586 118.36781101 512.72653065 117.44683933 512.74188709 C105.50256586 512.55759218 95.67478593 507.64974845 85.53057957 501.75922108 C84.45348728 501.14490223 83.376395 500.53058338 82.26666355 499.89764881 C78.93036942 497.98935374 75.60410157 496.06466186 72.28057957 494.13422108 C70.76198338 493.25419422 70.76198338 493.25419422 69.21270847 492.35638905 C64.25817318 489.48189663 59.31175306 486.59384821 54.37042332 483.69672108 C48.06487446 480.00208744 41.73757323 476.34580311 35.40557957 472.69672108 C34.32832615 472.07563465 33.25107273 471.45454823 32.14117527 470.814641 C26.63972607 467.64370953 21.13644076 464.47598441 15.63214207 461.31000233 C10.21984388 458.19623579 4.81446513 455.07068378 -0.58856106 451.9408617 C-3.68301156 450.15523056 -6.78653578 448.38622601 -9.89129543 446.61859608 C-27.6677118 436.42278165 -42.02637938 426.03486533 -47.77050972 405.34902382 C-49.17228577 398.84790704 -48.99961444 392.31243041 -48.98011684 385.69347095 C-48.98314095 384.23407446 -48.98703173 382.77467955 -48.99170941 381.31528741 C-49.00196484 377.32260426 -48.99981387 373.33001114 -48.99552882 369.33732069 C-48.99305711 365.02431583 -49.0020813 360.71133241 -49.00956631 356.39833546 C-49.02230321 347.9552729 -49.02410824 339.51224217 -49.02176604 331.06917163 C-49.01998151 324.20449673 -49.02173543 317.33983148 -49.02599049 310.47515774 C-49.02658568 309.49736394 -49.02718086 308.51957015 -49.02779409 307.51214624 C-49.02900587 305.52561082 -49.03022 303.5390754 -49.03143647 301.55253998 C-49.04230823 282.93041289 -49.0401513 264.30830391 -49.03405162 245.6861758 C-49.02888344 228.66200122 -49.04013595 211.63788388 -49.05914984 194.61372062 C-49.07853705 177.12078037 -49.08678265 159.62786719 -49.08302659 142.13491613 C-49.0811158 132.31900862 -49.08359011 122.50314982 -49.09774113 112.68725109 C-49.10966718 104.33031245 -49.11104611 95.97345249 -49.09895096 87.61651274 C-49.09307074 83.35577678 -49.09193906 79.09518465 -49.10395336 74.83445835 C-49.11484075 70.92785487 -49.11167512 67.02151482 -49.09769168 63.11492351 C-49.09505257 61.70785521 -49.09738639 60.30076607 -49.10542754 58.89371826 C-49.19733524 41.60003766 -45.12509812 28.08749915 -33.05926418 15.41937733 C-24.13148447 6.70026024 -12.83863194 0.02797805 0 0 Z M-14.71942043 46.13422108 C-15.7792653 49.31375568 -15.84687921 51.56236379 -15.8508482 54.90303898 C-15.85468934 56.1134335 -15.85853049 57.32382802 -15.86248803 58.57090116 C-15.86170775 59.92104838 -15.86082895 61.27119555 -15.85986233 62.62134266 C-15.8624453 64.05024952 -15.86545827 65.47915566 -15.86886573 66.90806079 C-15.876947 70.84411818 -15.87872593 74.78015734 -15.8794632 78.71622205 C-15.8813118 82.95765661 -15.88885817 87.19908167 -15.89559841 91.44051075 C-15.90919039 100.7194315 -15.91520783 109.99834794 -15.91960907 119.27727699 C-15.9223701 125.0693321 -15.92660721 130.86138554 -15.93111324 136.65343952 C-15.94330717 152.68478382 -15.95360615 168.71612678 -15.95698833 184.74747562 C-15.9572079 185.77387043 -15.95742747 186.80026524 -15.95765369 187.85776292 C-15.95787196 188.88663735 -15.95809024 189.91551179 -15.95831513 190.97556424 C-15.9587586 193.06051366 -15.95920517 195.14546307 -15.95965481 197.23041248 C-15.95987624 198.26462313 -15.96009767 199.29883378 -15.96032581 200.36438414 C-15.96427418 217.12395439 -15.98172886 233.88348116 -16.00501433 250.64303461 C-16.02871924 267.84308387 -16.0411898 285.04311131 -16.04235625 302.24317718 C-16.04327351 311.9030826 -16.0490386 321.56293139 -16.06717587 331.22282124 C-16.08256525 339.44829117 -16.0877042 347.67368699 -16.07943776 355.89916858 C-16.0755271 360.09646478 -16.0764811 364.29361165 -16.09049511 368.49088955 C-16.10320912 372.33393518 -16.10205864 376.17671889 -16.0899044 380.01976404 C-16.08794305 381.40942881 -16.09104607 382.79911198 -16.09974876 384.18875089 C-16.15356264 393.36317797 -15.82870708 400.44974679 -9.45623684 407.61078358 C-5.42615549 411.14574388 -0.57597042 413.55331181 4.09307957 416.13422108 C5.26114861 416.7917423 6.4284546 417.45062073 7.59503269 418.11078358 C9.98995197 419.46532641 12.38753878 420.81495641 14.78692722 422.16156483 C19.98840426 425.08899336 25.13278332 428.1137272 30.28057957 431.13422108 C41.81459939 437.87658658 53.38612602 444.55304533 64.96319675 451.22113514 C68.33412265 453.16509858 71.70223871 455.11385042 75.06964207 457.06390858 C99.1583055 473.46876915 99.1583055 473.46876915 126.28057957 479.13422108 C132.60216224 476.74171344 136.94299469 471.98562437 140.39731276 466.29429221 C141.49257102 463.61578586 141.53365591 461.52904237 141.53784847 458.63558292 C141.54752181 456.94855696 141.54752181 456.94855696 141.55739057 455.22744966 C141.55429337 453.99167263 141.55119616 452.7558956 141.5480051 451.48267078 C141.55480177 449.51365523 141.55480177 449.51365523 141.56173575 447.50486159 C141.57398759 443.85801192 141.57370272 440.21125384 141.571347 436.56438828 C141.57093938 432.63242073 141.58197283 428.70048276 141.59146214 424.76852894 C141.60808563 417.06340446 141.61357231 409.35831057 141.61468689 401.65316966 C141.61563683 395.38998003 141.61974443 389.12680051 141.62608814 382.86361408 C141.6437051 365.1090827 141.65292643 347.35457552 141.65142719 329.60003534 C141.65130733 328.16386158 141.65130733 328.16386158 141.65118504 326.6986742 C141.65106239 325.260748 141.65106239 325.260748 141.65093727 323.79377279 C141.65012449 308.26032685 141.66925898 292.72697791 141.69746177 277.19356003 C141.72618693 261.24665285 141.74000223 245.29979297 141.73827422 229.35285926 C141.73761013 220.39882707 141.74311028 211.44489654 141.76463032 202.49088764 C141.7828374 194.86638214 141.78719346 187.24202435 141.77361147 179.61750653 C141.76707907 175.72787242 141.76697412 171.83852172 141.78431797 167.94891453 C141.80293521 163.73029694 141.79050117 159.51233618 141.77505589 155.29370594 C141.78534301 154.0668518 141.79563014 152.83999766 141.806229 151.57596612 C141.74420835 143.92172753 140.98102108 138.1067693 135.55743504 132.28436756 C134.96849461 131.88290516 134.37955418 131.48144276 133.77276707 131.06781483 C133.07377293 130.58941151 132.37477879 130.11100819 131.654603 129.6181078 C126.9708967 126.69055052 122.21192871 123.91762305 117.40557957 121.19672108 C115.66896879 120.20437206 113.93236269 119.21201476 112.19604588 118.2191515 C110.40514418 117.19591487 108.61297596 116.17492491 106.82061863 115.15424061 C101.2938772 112.00416793 95.78848137 108.81707627 90.28057957 105.63422108 C88.11401058 104.38405178 85.94734365 103.13405221 83.78057957 101.88422108 C70.78057957 94.38422108 57.78057957 86.88422108 44.78057957 79.38422108 C43.70695164 78.76482655 42.63332371 78.14543201 41.5271616 77.50726795 C39.37186646 76.26381598 37.21659284 75.02032672 35.06134129 73.7767992 C30.05720283 70.88959233 25.05287436 68.00271677 20.04773045 65.1172533 C18.29716716 64.10803004 16.54667546 63.09868271 14.79620457 62.0892992 C12.61665792 60.83254448 10.43698124 59.57601522 8.25714207 58.31976795 C7.25682957 57.74291248 6.25651707 57.16605701 5.22589207 56.57172108 C4.25426121 56.01226795 3.28263035 55.45281483 2.28155613 54.87640858 C0.15704291 53.64304327 -1.96011174 52.39696204 -4.0719595 51.14203358 C-5.15444973 50.50008045 -6.23693996 49.85812733 -7.35223293 49.19672108 C-8.33337063 48.61019764 -9.31450832 48.0236742 -10.32537746 47.41937733 C-12.56024915 45.976563 -12.56024915 45.976563 -14.71942043 46.13422108 Z " fill="#000000" transform="translate(75.71942043304443,-0.13422107696533203)"/>
<path d="M0 0 C2.31422424 1.74250793 2.31422424 1.74250793 4.63500977 3.91723633 C5.50441193 4.72859039 6.37381409 5.53994446 7.26956177 6.37588501 C11.93670625 10.86129093 16.56637731 15.38088172 21.15234375 19.94921875 C21.657959 20.45200663 22.16357426 20.9547945 22.68451118 21.47281837 C25.34905272 24.12253538 28.01083911 26.77498145 30.67016602 29.42993164 C33.40246971 32.15670726 36.14397043 34.87404192 38.88761044 37.58940411 C41.01424085 39.69738546 43.13410889 41.81206985 45.25219917 43.92862892 C46.26036563 44.93378456 47.27101382 45.93645781 48.28425407 46.93649864 C49.69782103 48.33292296 51.10095913 49.73988004 52.50366211 51.1472168 C53.30178818 51.94169724 54.09991425 52.73617767 54.92222595 53.55473328 C58.21523212 57.43016834 60.43102144 61.34602768 60.375 66.5 C60.38273438 67.2115625 60.39046875 67.923125 60.3984375 68.65625 C59.38492743 74.61807396 55.75484555 78.6804295 51.58227539 82.79003906 C51.04206253 83.33390259 50.50184967 83.87776611 49.94526672 84.43811035 C48.17002801 86.22140946 46.38422737 87.99368491 44.59765625 89.765625 C43.35548135 91.00728087 42.11382545 92.24945614 40.87266541 93.49212646 C38.27567816 96.08902419 35.67361896 98.68069407 33.06762695 101.26855469 C29.72896072 104.5844992 26.40151837 107.91144074 23.07756901 111.24213028 C20.51719013 113.80585096 17.9518485 116.36455722 15.38488579 118.92168427 C14.15597 120.14675412 12.92839591 121.37317142 11.70219612 122.60095978 C9.98871656 124.31481042 8.26888082 126.02201423 6.54711914 127.72753906 C6.04257202 128.2345636 5.5380249 128.74158813 5.01818848 129.26397705 C0.68079965 133.5363099 -2.2828649 135.28967598 -8.375 135.375 C-13.38964829 135.27484058 -16.18525136 134.44257804 -20 131 C-24.00685186 126.55997497 -25.41396202 123.21066195 -25.25610352 117.14575195 C-24.12418094 107.6619888 -15.70282997 101.24686792 -9.25 95 C-8.15923042 93.92932781 -7.06937799 92.85772041 -5.98046875 91.78515625 C-3.33080768 89.17922915 -0.66893194 86.58620396 2 84 C1.23247091 83.99853344 0.46494183 83.99706688 -0.32584572 83.99555588 C-19.00462255 83.95849844 -37.6832122 83.89949787 -56.3618412 83.81609726 C-65.39471356 83.77629396 -74.42749863 83.74390804 -83.46044922 83.72900391 C-91.33390808 83.71599407 -99.20717499 83.68904655 -107.08052576 83.64538693 C-111.24915092 83.62275699 -115.4175392 83.60709023 -119.58623123 83.60811615 C-123.51141978 83.60886187 -127.4360844 83.59094713 -131.36113739 83.55883217 C-132.80021907 83.55032615 -134.23935947 83.54858806 -135.67845535 83.55419731 C-137.64695828 83.56084698 -139.61549671 83.54053935 -141.58389282 83.51898193 C-142.68451365 83.51529476 -143.78513447 83.51160759 -144.91910744 83.50780869 C-149.97356487 82.67470681 -153.07296341 80.10242189 -156.3125 76.25 C-159.06978232 70.93967849 -159.72627647 66.46631134 -157.9375 60.8125 C-155.73378502 55.71390488 -152.38839193 52.94882946 -147.19229698 50.88459206 C-143.88924465 49.96930946 -141.15679025 49.73919169 -137.73574829 49.7215271 C-135.88067657 49.70478188 -135.88067657 49.70478188 -133.98812866 49.68769836 C-132.63092072 49.68533382 -131.27371243 49.68315809 -129.91650391 49.68115234 C-128.47720785 49.67184713 -127.03791717 49.66167757 -125.59863281 49.65071106 C-121.70242952 49.62346381 -117.80626228 49.60827735 -113.90998888 49.59528303 C-109.83402412 49.57962936 -105.75813273 49.55284628 -101.68222046 49.5272522 C-93.96885024 49.48050397 -86.25546617 49.44374073 -78.54202688 49.41057932 C-69.75845445 49.37232996 -60.97495579 49.32292718 -52.19144559 49.27259517 C-34.12768441 49.16933416 -16.06387818 49.08005482 2 49 C0.87972412 47.90328979 0.87972412 47.90328979 -0.26318359 46.78442383 C-3.04020619 44.06182769 -5.80718507 41.32921152 -8.57128906 38.59350586 C-9.76747757 37.41237495 -10.96634864 36.23395425 -12.16796875 35.05834961 C-13.89780921 33.36502482 -15.6176692 31.66208789 -17.3359375 29.95703125 C-17.87245941 29.43599319 -18.40898132 28.91495514 -18.96176147 28.37812805 C-23.18737265 24.15443046 -24.79401293 21.09420189 -25.375 15.1875 C-25.23326531 10.50139667 -23.73108677 6.7899081 -21 3 C-14.34750878 -2.52015229 -7.92981312 -2.93405464 0 0 Z " fill="#000000" transform="translate(425,148)"/>
</svg>
