<?xml version="1.0" encoding="UTF-8"?>
<svg version="1.1" xmlns="http://www.w3.org/2000/svg" width="512" height="512">
<path d="M0 0 C0.54108398 0.47937012 1.08216797 0.95874023 1.63964844 1.45263672 C24.46151463 21.75138164 48.1965393 49.58961789 58 79 C59.68416016 79.07347656 59.68416016 79.07347656 61.40234375 79.1484375 C84.2353927 80.23754741 84.2353927 80.23754741 93 88 C97.33580654 93.46105157 99.11912672 98.15130394 99.15390015 105.13990784 C99.16250061 106.42535995 99.17110107 107.71081207 99.17996216 109.03521729 C99.18439737 110.46301229 99.18869573 111.89080773 99.19287109 113.31860352 C99.20077361 114.82004485 99.20904266 116.3214843 99.21765137 117.82292175 C99.24386235 122.7582315 99.25918181 127.69354966 99.2734375 132.62890625 C99.27879827 134.32969607 99.28417578 136.03048584 99.28956985 137.73127556 C99.31120055 144.80937369 99.32993477 151.88746956 99.34119225 158.96559238 C99.35741407 169.09758561 99.3905465 179.22919428 99.44759309 189.36104256 C99.48636148 196.490712 99.5058333 203.62027891 99.51111281 210.75005096 C99.51475792 215.00494992 99.5266884 219.25943864 99.55921555 223.5142231 C99.5894167 227.52233112 99.59556563 231.52978332 99.58383179 235.53798103 C99.58361203 237.00284782 99.59183579 238.46774609 99.60948563 239.93250656 C99.70816873 248.5995618 99.26608792 255.82655951 94 263 C85.7707975 270.7885595 77.04694567 271.99789094 66.125 272.5625 C65.34125 272.60568359 64.5575 272.64886719 63.75 272.69335938 C61.83349351 272.79853351 59.91676667 272.89967925 58 273 C57.5153125 273.99257813 57.030625 274.98515625 56.53125 276.0078125 C27.73143627 334.58826107 -19.87057324 378.08357098 -81.68359375 399.65625 C-141.09407625 419.67499954 -206.2744009 414.5266457 -262.53417969 387.23876953 C-281.24834514 377.8372175 -298.39762413 365.93728099 -314 352 C-314.54108398 351.52062988 -315.08216797 351.04125977 -315.63964844 350.54736328 C-338.46151463 330.24861836 -362.1965393 302.41038211 -372 273 C-373.12277344 272.95101563 -374.24554688 272.90203125 -375.40234375 272.8515625 C-398.2353927 271.76245259 -398.2353927 271.76245259 -407 264 C-411.3407854 258.53267744 -413.12053309 253.84347901 -413.14717102 246.84663391 C-413.15432632 245.55829147 -413.16148163 244.26994904 -413.16885376 242.94256592 C-413.17169402 241.51159692 -413.17440575 240.08062766 -413.17700195 238.6496582 C-413.18326744 237.14497216 -413.18991431 235.64028766 -413.19691467 234.13560486 C-413.21794989 229.1906746 -413.22831752 224.24574406 -413.23828125 219.30078125 C-413.24232921 217.5974698 -413.24644614 215.89415851 -413.25063133 214.1908474 C-413.26968294 206.18714392 -413.28391323 198.18344965 -413.2922433 190.17972785 C-413.30201174 180.94679694 -413.328321 171.71410601 -413.36874419 162.48125964 C-413.39892872 155.3414284 -413.41371445 148.20166585 -413.41702431 141.06177205 C-413.41937242 136.79917864 -413.42830135 132.53684163 -413.45348549 128.27431679 C-413.47681183 124.26135437 -413.48098131 120.24881632 -413.47072411 116.2358036 C-413.47022971 114.76688218 -413.47652163 113.29793956 -413.49028015 111.82908249 C-413.56150311 103.77127386 -413.40443811 97.86671759 -409 91 C-408.46375 90.113125 -407.9275 89.22625 -407.375 88.3125 C-399.7346706 80.8732319 -390.25210528 79.96101985 -380.125 79.4375 C-379.34125 79.39431641 -378.5575 79.35113281 -377.75 79.30664062 C-375.83349351 79.20146649 -373.91676667 79.10032075 -372 79 C-371.27296875 77.51113281 -371.27296875 77.51113281 -370.53125 75.9921875 C-341.73143627 17.41173893 -294.12942676 -26.08357098 -232.31640625 -47.65625 C-214.76127094 -53.57156733 -196.47673028 -57.55965489 -178 -59 C-177.236875 -59.06171387 -176.47375 -59.12342773 -175.6875 -59.18701172 C-111.62805343 -64.08766337 -47.90842303 -42.7956075 0 0 Z M-246.87695312 -19.01464844 C-248.92552336 -18.03559394 -250.98494003 -17.08331423 -253.046875 -16.1328125 C-292.83686904 2.58699395 -329.59719161 37.8866889 -348 78 C-348 78.66 -348 79.32 -348 80 C-336.13152078 82.0450176 -336.13152078 82.0450176 -325.20117188 78.65527344 C-322.10060509 74.92826561 -320.15933303 70.54651617 -318.11572266 66.18066406 C-316.33971478 62.70948194 -314.01570676 59.76500007 -311.5625 56.75 C-311.10625244 56.18055664 -310.65000488 55.61111328 -310.17993164 55.02441406 C-305.37938725 49.10953325 -300.24954274 43.51605799 -295 38 C-294.34773438 37.29488281 -293.69546875 36.58976562 -293.0234375 35.86328125 C-259.3465975 0.53842567 -208.83958293 -17.42677353 -160.90234375 -18.9375 C-139.65466999 -19.34213731 -119.35750274 -15.89805635 -99 -10 C-97.78441406 -9.65839844 -96.56882812 -9.31679687 -95.31640625 -8.96484375 C-85.01877785 -5.85160726 -85.01877785 -5.85160726 -82 -1 C-81.38282532 3.26753709 -81.63820241 6.91460724 -83 11 C-88.92124898 14.00547584 -94.47849178 12.74503906 -100.51391602 10.83837891 C-101.51994873 10.49983887 -102.52598145 10.16129883 -103.5625 9.8125 C-105.68567297 9.14390975 -107.81069059 8.48114956 -109.9375 7.82421875 C-110.96875 7.50501465 -112 7.18581055 -113.0625 6.85693359 C-119.2769079 5.04405363 -125.60586029 3.97220838 -132 3 C-133.12535156 2.82597656 -134.25070312 2.65195313 -135.41015625 2.47265625 C-179.30274363 -3.30645482 -225.64649563 8.71439482 -261.0859375 35.31640625 C-263.78104211 37.48683363 -266.4029424 39.71346016 -269 42 C-269.85078125 42.74121094 -270.7015625 43.48242188 -271.578125 44.24609375 C-274.08482567 46.46444695 -276.55069919 48.71851425 -279 51 C-280.10794922 52.02673828 -280.10794922 52.02673828 -281.23828125 53.07421875 C-285.83341675 57.48979301 -289.91891714 62.20297953 -293.875 67.1875 C-294.33962646 67.76975342 -294.80425293 68.35200684 -295.28295898 68.9519043 C-298.01077096 72.46037463 -300.13768302 75.93620235 -302 80 C-288.05991177 81.93019665 -288.05991177 81.93019665 -275.421875 77.7265625 C-272.9824482 74.9354392 -271.00655034 72.1105728 -269 69 C-267.37652963 67.29122865 -265.70451664 65.62793691 -264 64 C-263.47317627 63.45174561 -262.94635254 62.90349121 -262.40356445 62.33862305 C-258.278984 58.06065153 -253.94242127 54.50656 -249.0625 51.125 C-248.32161133 50.6103418 -247.58072266 50.09568359 -246.81738281 49.56542969 C-212.10868307 25.80184478 -170.0784929 16.11957876 -128.5625 23.6875 C-118.73088567 25.60544864 -109.35662716 28.44727874 -100 32 C-98.77796875 32.46277344 -97.5559375 32.92554687 -96.296875 33.40234375 C-74.86650904 42.07539545 -50.07323962 57.90978673 -37.32391357 77.58683777 C-35.18302614 80.27285124 -35.18302614 80.27285124 -31.8994751 80.60127258 C-30.68257996 80.59016953 -29.46568481 80.57906647 -28.21191406 80.56762695 C-27.53833359 80.56835709 -26.86475311 80.56908722 -26.17076111 80.56983948 C-23.95155375 80.56636493 -21.73446405 80.52751686 -19.515625 80.48828125 C-17.97435655 80.47895248 -16.43307325 80.47183667 -14.89178467 80.46684265 C-10.84062564 80.44777737 -6.79036696 80.39868205 -2.73956299 80.34332275 C1.39615703 80.29211928 5.53202294 80.26932635 9.66796875 80.24414062 C17.77905842 80.19056159 25.88941712 80.10525599 34 80 C28.26625777 62.15201713 15.14493415 46.92269801 3 33 C2.33871094 32.2265625 1.67742187 31.453125 0.99609375 30.65625 C-5.99720323 22.52087096 -13.59711279 15.67191435 -22 9 C-23.46759766 7.80697266 -23.46759766 7.80697266 -24.96484375 6.58984375 C-86.67260568 -42.51179279 -175.64256697 -53.09579006 -246.87695312 -19.01464844 Z M-237.75 68.1875 C-238.40548828 68.67428223 -239.06097656 69.16106445 -239.73632812 69.66259766 C-243.91676454 72.88292863 -246.44738676 75.73686411 -250 80 C-188.62 80 -127.24 80 -64 80 C-68.18209969 75.12088369 -71.62169826 71.34039105 -76.6875 67.6875 C-77.33122559 67.22311523 -77.97495117 66.75873047 -78.63818359 66.28027344 C-97.50586131 53.04373378 -119.11690968 44.7267103 -142 42 C-143.27746094 41.84660156 -144.55492187 41.69320312 -145.87109375 41.53515625 C-178.47374367 38.61306577 -211.60644311 48.76121686 -237.75 68.1875 Z M-391 102 C-393.18689289 105.18094596 -393.2569074 107.97119753 -393.27415466 111.76231384 C-393.28412979 112.93856827 -393.29410492 114.11482269 -393.30438232 115.32672119 C-393.305047 116.61358826 -393.30571167 117.90045532 -393.30639648 119.22631836 C-393.31401968 120.59809317 -393.32244746 121.9698637 -393.33161926 123.34162903 C-393.35355258 127.06475791 -393.3623613 130.78780467 -393.36744571 134.51099086 C-393.37108998 136.83743624 -393.37733033 139.16386013 -393.3844471 141.49029732 C-393.40893536 149.60739207 -393.42199261 157.72442294 -393.42553711 165.84155273 C-393.42917425 173.40683294 -393.45908362 180.97170792 -393.50094169 188.53686422 C-393.53562867 195.03379868 -393.55108525 201.5305987 -393.55178314 208.02762514 C-393.55257637 211.90731354 -393.5613355 215.78658888 -393.58978081 219.66618156 C-393.6159355 223.31483388 -393.61818213 226.96272985 -393.60212517 230.61143303 C-393.59944312 232.58692034 -393.62151093 234.56239276 -393.64431763 236.53775024 C-393.63455399 237.71682449 -393.62479034 238.89589874 -393.61473083 240.11070251 C-393.61674216 241.13330642 -393.61875349 242.15591032 -393.62082577 243.20950222 C-392.74664207 247.13879733 -391.12200387 248.49696132 -388 251 C-385.19012181 251.49225208 -382.98706474 251.67436958 -380.1835022 251.6292057 C-379.00705238 251.64010651 -379.00705238 251.64010651 -377.80683589 251.65122753 C-375.16842826 251.66953219 -372.53146437 251.65209758 -369.89306641 251.63491821 C-367.98664924 251.64067726 -366.08023762 251.64861691 -364.17383766 251.65855443 C-358.92711 251.67948076 -353.68083544 251.66908624 -348.43410587 251.65362334 C-342.77893523 251.64233744 -337.12384397 251.65975882 -331.46868896 251.67352295 C-320.38708377 251.69578939 -309.30564763 251.69093897 -298.22403574 251.67645974 C-289.22008276 251.66518091 -280.21617725 251.66363073 -271.21221924 251.66907883 C-269.93212341 251.66984499 -268.65202758 251.67061116 -267.33314097 251.67140054 C-264.73288328 251.67299912 -262.13262561 251.67462019 -259.53236794 251.6762635 C-235.8292875 251.69012403 -212.12631604 251.67573515 -188.42325321 251.64955051 C-166.77886414 251.62582192 -145.13462215 251.62794504 -123.49023438 251.65185547 C-99.18023274 251.67862073 -74.87033521 251.6891576 -50.56031609 251.67379415 C-47.96947099 251.67220136 -45.37862588 251.6706295 -42.78778076 251.66907883 C-41.51294032 251.66830745 -40.23809987 251.66753607 -38.9246279 251.66674132 C-29.928512 251.66241902 -20.93244817 251.66972229 -11.93634033 251.68147659 C-0.9773261 251.69548048 9.98150901 251.69174606 20.94050264 251.66507287 C26.53504327 251.65190635 32.12928494 251.64683069 37.72382355 251.66331863 C42.84113177 251.67817234 47.95786276 251.67010569 53.0751183 251.64343087 C54.930356 251.63782644 56.78564204 251.64073003 58.64084888 251.65280981 C61.1557678 251.66793428 63.668689 251.65250758 66.1835022 251.6292057 C66.91014549 251.64091153 67.63678877 251.65261737 68.38545156 251.66467792 C72.25987507 251.59252844 73.88684871 251.09071803 76.9497295 248.63508075 C79.38395984 245.50652112 79.62244719 244.03386712 79.61473083 240.11070251 C79.62449448 238.93162827 79.63425812 237.75255402 79.64431763 236.53775024 C79.62206619 234.61048599 79.62206619 234.61048599 79.59936523 232.64428711 C79.60123005 231.27074236 79.60526832 229.8971991 79.61131287 228.52366638 C79.62127994 224.80038113 79.60013127 221.07785827 79.57283282 217.35468364 C79.54898497 213.45681286 79.55194764 209.55895674 79.55152893 205.661026 C79.54690244 199.11657826 79.52327047 192.57242166 79.48706055 186.02807617 C79.44531049 178.46231239 79.42774459 170.89681065 79.4244408 163.33093828 C79.42084087 155.27413274 79.40196685 147.21742146 79.37732053 139.16065526 C79.37109313 136.83961082 79.36745606 134.51857356 79.36428642 132.19752312 C79.35838382 128.55064896 79.34206523 124.90396186 79.31768227 121.25716591 C79.3066969 119.28037656 79.30540336 117.3035408 79.30438232 115.32672119 C79.2944072 114.15046677 79.28443207 112.97421234 79.27415466 111.76231384 C79.26950416 110.74008697 79.26485365 109.71786009 79.26006222 108.66465664 C78.99128424 105.91069631 78.56371492 104.27450219 77 102 C73.4127326 100.8042442 70.15691736 100.8622275 66.42401123 100.87415886 C65.64141984 100.87270542 64.85882846 100.87125198 64.05252218 100.86975449 C61.40836802 100.86608099 58.76427101 100.86958716 56.12011719 100.87301636 C54.21400803 100.87186507 52.30789909 100.8702775 50.40179062 100.86828911 C45.14682743 100.86409681 39.89188229 100.86618605 34.63691902 100.86927533 C28.97632853 100.8715296 23.31574123 100.86804968 17.65515137 100.86529541 C6.55928968 100.86083902 -4.53656526 100.8618136 -15.63242722 100.86470805 C-24.64691982 100.86696259 -33.66141052 100.86727438 -42.67590332 100.86618423 C-43.95684757 100.866031 -45.23779183 100.86587777 -46.55755258 100.86571989 C-49.15942478 100.86540018 -51.76129699 100.86507597 -54.36316919 100.8647473 C-78.08819385 100.86197433 -101.81321415 100.86485441 -125.53823811 100.8700899 C-147.2090878 100.87483571 -168.87993161 100.87441109 -190.55078125 100.86962891 C-214.8826954 100.86427748 -239.21460539 100.86216758 -263.54652023 100.86524117 C-266.13904571 100.86555973 -268.7315712 100.8658741 -271.32409668 100.86618423 C-272.59980852 100.86633851 -273.87552037 100.86649279 -275.18989015 100.86665174 C-284.19792398 100.86751668 -293.20595574 100.8660545 -302.21398926 100.86370468 C-313.1854885 100.8609057 -324.15698059 100.86164703 -335.128479 100.86698543 C-340.73076268 100.8696211 -346.3330344 100.87062974 -351.93531799 100.86733627 C-357.05733425 100.8643706 -362.1793274 100.86597072 -367.30134153 100.87131383 C-369.16064668 100.87243684 -371.01995376 100.87184936 -372.87925768 100.86943804 C-375.39420382 100.86642499 -377.90906939 100.86948807 -380.42401123 100.87415886 C-381.15648024 100.87181769 -381.88894925 100.86947653 -382.64361429 100.86706442 C-385.7097587 100.87855201 -388.0662146 101.02207153 -391 102 Z M-348 272 C-342.26625777 289.84798287 -329.14493415 305.07730199 -317 319 C-316.00806641 320.16015625 -316.00806641 320.16015625 -314.99609375 321.34375 C-308.00279677 329.47912904 -300.40288721 336.32808565 -292 343 C-291.02160156 343.79535156 -290.04320312 344.59070313 -289.03515625 345.41015625 C-244.57897343 380.78449592 -187.59222491 395.17254732 -131.50585938 389.42285156 C-109.15072021 386.72653533 -87.42562019 380.72814376 -67.12304688 371.01464844 C-65.07447664 370.03559394 -63.01505997 369.08331423 -60.953125 368.1328125 C-21.16313096 349.41300605 15.59719161 314.1133111 34 274 C34 273.34 34 272.68 34 272 C22.13152078 269.9549824 22.13152078 269.9549824 11.20117188 273.34472656 C8.10060509 277.07173439 6.15933303 281.45348383 4.11572266 285.81933594 C2.33971478 289.29051806 0.01570676 292.23499993 -2.4375 295.25 C-3.12187134 296.10416504 -3.12187134 296.10416504 -3.82006836 296.97558594 C-8.62061275 302.89046675 -13.75045726 308.48394201 -19 314 C-19.65226562 314.70511719 -20.30453125 315.41023438 -20.9765625 316.13671875 C-54.6534025 351.46157433 -105.16041707 369.42677353 -153.09765625 370.9375 C-174.34533001 371.34213731 -194.64249726 367.89805635 -215 362 C-216.21558594 361.65839844 -217.43117187 361.31679688 -218.68359375 360.96484375 C-228.98122215 357.85160726 -228.98122215 357.85160726 -232 353 C-232.61717468 348.73246291 -232.36179759 345.08539276 -231 341 C-225.07875102 337.99452416 -219.52150822 339.25496094 -213.48608398 341.16162109 C-212.48005127 341.50016113 -211.47401855 341.83870117 -210.4375 342.1875 C-208.31432703 342.85609025 -206.18930941 343.51885044 -204.0625 344.17578125 C-203.03125 344.49498535 -202 344.81418945 -200.9375 345.14306641 C-194.7230921 346.95594637 -188.39413971 348.02779162 -182 349 C-180.87464844 349.17402344 -179.74929687 349.34804688 -178.58984375 349.52734375 C-134.69725637 355.30645482 -88.35350437 343.28560518 -52.9140625 316.68359375 C-50.21895789 314.51316637 -47.5970576 312.28653984 -45 310 C-43.72382812 308.88818359 -43.72382812 308.88818359 -42.421875 307.75390625 C-39.91517433 305.53555305 -37.44930081 303.28148575 -35 301 C-33.89205078 299.97326172 -33.89205078 299.97326172 -32.76171875 298.92578125 C-28.16658325 294.51020699 -24.08108286 289.79702047 -20.125 284.8125 C-19.66037354 284.23024658 -19.19574707 283.64799316 -18.71704102 283.0480957 C-15.98922904 279.53962537 -13.86231698 276.06379765 -12 272 C-25.94008823 270.06980335 -25.94008823 270.06980335 -38.578125 274.2734375 C-41.0175518 277.0645608 -42.99344966 279.8894272 -45 283 C-46.62347037 284.70877135 -48.29548336 286.37206309 -50 288 C-50.52682373 288.54825439 -51.05364746 289.09650879 -51.59643555 289.66137695 C-55.721016 293.93934847 -60.05757873 297.49344 -64.9375 300.875 C-65.67838867 301.3896582 -66.41927734 301.90431641 -67.18261719 302.43457031 C-101.89131693 326.19815522 -143.9215071 335.88042124 -185.4375 328.3125 C-195.26911433 326.39455136 -204.64337284 323.55272126 -214 320 C-215.22203125 319.53722656 -216.4440625 319.07445312 -217.703125 318.59765625 C-239.13349096 309.92460455 -263.92676038 294.09021327 -276.67608643 274.41316223 C-278.81697386 271.72714876 -278.81697386 271.72714876 -282.1005249 271.39872742 C-283.31742004 271.40983047 -284.53431519 271.42093353 -285.78808594 271.43237305 C-286.46166641 271.43164291 -287.13524689 271.43091278 -287.82923889 271.43016052 C-290.04844625 271.43363507 -292.26553595 271.47248314 -294.484375 271.51171875 C-296.02564345 271.52104752 -297.56692675 271.52816333 -299.10821533 271.53315735 C-303.15937436 271.55222263 -307.20963304 271.60131795 -311.26043701 271.65667725 C-315.39615703 271.70788072 -319.53202294 271.73067365 -323.66796875 271.75585938 C-331.77905842 271.80943841 -339.88941712 271.89474401 -348 272 Z M-250 272 C-245.81790031 276.87911631 -242.37830174 280.65960895 -237.3125 284.3125 C-236.66877441 284.77688477 -236.02504883 285.24126953 -235.36181641 285.71972656 C-216.49413869 298.95626622 -194.88309032 307.2732897 -172 310 C-170.72253906 310.15339844 -169.44507813 310.30679688 -168.12890625 310.46484375 C-135.52625633 313.38693423 -102.39355689 303.23878314 -76.25 283.8125 C-75.26676758 283.08232666 -75.26676758 283.08232666 -74.26367188 282.33740234 C-70.08323546 279.11707137 -67.55261324 276.26313589 -64 272 C-125.38 272 -186.76 272 -250 272 Z " fill="#000000" transform="translate(413,80)"/>
<path d="M0 0 C0.7336377 0.00016113 1.46727539 0.00032227 2.22314453 0.00048828 C4.43602503 -0.00384976 6.64685239 -0.04005478 8.859375 -0.078125 C17.72055812 -0.14894314 24.44304605 0.20570646 31.21484375 6.62109375 C35.38769186 13.6828367 35.28998214 20.49200848 33.83984375 28.37109375 C31.95782374 33.71999273 29.10766838 35.91756313 24.83984375 39.37109375 C26.12905591 41.97650157 27.42109971 44.58043748 28.71484375 47.18359375 C29.07964844 47.92158203 29.44445312 48.65957031 29.8203125 49.41992188 C30.17480469 50.13212891 30.52929688 50.84433594 30.89453125 51.578125 C31.38155518 52.56002808 31.38155518 52.56002808 31.87841797 53.56176758 C32.93240047 55.61762173 32.93240047 55.61762173 34.83984375 58.37109375 C35.33984375 61.24609375 35.33984375 61.24609375 34.83984375 64.37109375 C31.92744843 67.56086005 29.97419723 69.14422305 25.71484375 69.99609375 C21.73294433 69.13046344 21.16294779 67.74022475 18.83984375 64.37109375 C16.4242906 59.87537771 14.19769764 55.28240161 11.99414062 50.6796875 C11.53201172 49.75800781 11.06988281 48.83632813 10.59375 47.88671875 C10.18455322 47.04399414 9.77535645 46.20126953 9.35375977 45.33300781 C7.95273703 43.11974843 7.95273703 43.11974843 5.16772461 42.58886719 C4.39952393 42.51700195 3.63132324 42.44513672 2.83984375 42.37109375 C2.8555542 43.0165918 2.87126465 43.66208984 2.88745117 44.32714844 C2.94990177 47.25837404 2.98886605 50.18945954 3.02734375 53.12109375 C3.05248047 54.136875 3.07761719 55.15265625 3.10351562 56.19921875 C3.11318359 57.17890625 3.12285156 58.15859375 3.1328125 59.16796875 C3.14852295 60.06870117 3.1642334 60.96943359 3.18041992 61.89746094 C2.77141074 64.86812835 1.89698495 66.21844352 -0.16015625 68.37109375 C-2.53515625 68.8671875 -2.53515625 68.8671875 -5.16015625 68.80859375 C-6.02640625 68.80730469 -6.89265625 68.80601562 -7.78515625 68.8046875 C-10.68994265 68.27437288 -11.41178672 67.72837812 -13.16015625 65.37109375 C-13.53437805 62.63206482 -13.53437805 62.63206482 -13.5324707 59.27905273 C-13.54181389 57.39711464 -13.54181389 57.39711464 -13.55134583 55.47715759 C-13.54265867 54.10716352 -13.53334079 52.73717332 -13.5234375 51.3671875 C-13.52291887 49.9637909 -13.52343667 48.56039356 -13.52494812 47.15699768 C-13.52485843 44.21726625 -13.51443496 41.27780926 -13.49633789 38.33813477 C-13.47362967 34.56612627 -13.47311064 30.79451805 -13.47985554 27.02245998 C-13.48319319 24.12543669 -13.47656969 21.22850503 -13.4667263 18.3314991 C-13.46287203 16.94040468 -13.46172703 15.54930007 -13.46331215 14.15820122 C-13.46368208 12.21669102 -13.4496018 10.27519415 -13.43481445 8.33374023 C-13.43020706 7.22804184 -13.42559967 6.12234344 -13.42085266 4.98313904 C-12.73369009 -1.90188004 -5.31842579 0.0368975 0 0 Z M2.83984375 13.37109375 C2.83984375 18.65109375 2.83984375 23.93109375 2.83984375 29.37109375 C4.73734375 29.45359375 6.63484375 29.53609375 8.58984375 29.62109375 C10.19085938 29.69070312 10.19085938 29.69070312 11.82421875 29.76171875 C14.9208805 29.61204216 14.9208805 29.61204216 17.1953125 27.60546875 C19.38784047 24.62654713 19.49768359 22.87409822 19.26953125 19.27734375 C18.91783918 17.13271315 18.91783918 17.13271315 17.02734375 14.87109375 C12.21541565 12.606657 8.12711633 13.11628543 2.83984375 13.37109375 Z " fill="#000000" transform="translate(220.16015625,221.62890625)"/>
<path d="M0 0 C1.98597893 0.00844071 3.97200039 -0.02154245 5.95776367 -0.05200195 C13.96062664 -0.04793752 20.12085664 0.26382622 26.33105469 5.78735352 C31.47566658 11.32431213 32.13350486 18.00148 32.1237793 25.25073242 C32.12806442 25.97414825 32.13234955 26.69756409 32.13676453 27.44290161 C32.14247246 28.96395834 32.14303438 30.48504234 32.13867188 32.00610352 C32.13551568 34.30818226 32.15900063 36.6089686 32.18432617 38.91088867 C32.26082643 56.0224885 32.26082643 56.0224885 27.17456055 62.56713867 C26.60479492 63.00155273 26.0350293 63.4359668 25.44799805 63.88354492 C24.88338867 64.33600586 24.3187793 64.7884668 23.73706055 65.25463867 C17.48210796 69.14802753 11.39321117 68.78534788 4.22045898 68.76171875 C2.19680676 68.75854305 0.17459652 68.78210416 -1.84887695 68.80737305 C-3.12504883 68.80801758 -4.4012207 68.80866211 -5.71606445 68.80932617 C-6.88347168 68.81230713 -8.05087891 68.81528809 -9.25366211 68.81835938 C-12.17700195 68.44604492 -12.17700195 68.44604492 -13.83544922 67.29679871 C-15.74993335 64.65565113 -15.55805542 62.70506499 -15.56518555 59.46166992 C-15.57464203 58.23029297 -15.58409851 56.99891602 -15.59384155 55.73022461 C-15.58847184 54.38549478 -15.58231889 53.04076788 -15.57543945 51.69604492 C-15.57746042 50.31746263 -15.58037205 48.93888137 -15.58413696 47.56030273 C-15.5885593 44.67185278 -15.58213254 41.78368125 -15.56811523 38.89526367 C-15.55102294 35.19274738 -15.56086467 31.49088346 -15.57883263 27.78839111 C-15.58967317 24.94192591 -15.58622298 22.09561537 -15.57844925 19.24914551 C-15.57644797 17.88399173 -15.57890403 16.51882391 -15.58588791 15.15368652 C-15.59350585 13.24593372 -15.57983601 11.33813168 -15.56518555 9.43041992 C-15.56279877 8.34470703 -15.56041199 7.25899414 -15.55795288 6.14038086 C-15.17700195 3.44604492 -15.17700195 3.44604492 -13.83247375 1.59727478 C-10.04601169 -1.03586472 -4.44191646 -0.02880479 0 0 Z M0.82299805 13.44604492 C0.82299805 27.30604492 0.82299805 41.16604492 0.82299805 55.44604492 C8.96835575 55.93485583 8.96835575 55.93485583 14.82299805 52.44604492 C17.06607209 47.95989683 16.05022097 41.83399179 16.06323242 36.84301758 C16.0729311 34.58661949 16.10394992 32.33113514 16.13549805 30.07495117 C16.14202902 28.63875866 16.14727912 27.20255964 16.15112305 25.76635742 C16.16046875 24.45940918 16.16981445 23.15246094 16.17944336 21.8059082 C15.80451032 18.27177913 15.35547607 16.88431535 12.82299805 14.44604492 C8.92701938 12.97170327 8.92701938 12.97170327 0.82299805 13.44604492 Z " fill="#000000" transform="translate(447.177001953125,221.553955078125)"/>
<path d="M0 0 C4.05994588 2.21093952 6.72024963 5.30550818 8.75 9.4375 C9.96770645 13.61981767 9.94870378 17.75260655 9.98828125 22.078125 C9.996353 22.91913757 10.00442474 23.76015015 10.01274109 24.62664795 C10.02655212 26.40521197 10.03728757 28.18380215 10.04516602 29.96240234 C10.05667696 31.77205225 10.07711482 33.58166844 10.10668945 35.39111328 C10.14957023 38.01618344 10.16556328 40.64024715 10.17578125 43.265625 C10.19328934 44.06486389 10.21079742 44.86410278 10.22883606 45.68756104 C10.20486241 51.97517576 8.61297811 57.17168507 4.40864563 61.96759033 C-1.59932616 67.4600305 -8.48625035 67.85437187 -16.25 67.6796875 C-22.58730706 67.16808198 -27.34105757 65.86977006 -31.6875 61.0625 C-36.117772 55.5341264 -36.56747083 50.31777296 -36.5859375 43.48046875 C-36.5925943 42.61867508 -36.5992511 41.75688141 -36.60610962 40.86897278 C-36.61621173 39.04930751 -36.6209274 37.22960539 -36.62060547 35.40991211 C-36.6249694 32.64438884 -36.66128814 29.88047465 -36.69921875 27.11523438 C-36.70508952 25.34115125 -36.70905717 23.5670606 -36.7109375 21.79296875 C-36.72530853 20.97499313 -36.73967957 20.15701752 -36.75448608 19.31425476 C-36.70361236 12.83160174 -35.0780889 7.30208037 -30.43359375 2.59765625 C-29.85738281 2.23542969 -29.28117187 1.87320313 -28.6875 1.5 C-27.81931641 0.92958984 -27.81931641 0.92958984 -26.93359375 0.34765625 C-19.92034341 -3.44372966 -7.36236538 -2.91998898 0 0 Z M-19.25 13.4375 C-22.54291353 18.39773005 -21.5838519 24.5653152 -21.56567383 30.28198242 C-21.56251523 32.36495363 -21.58598519 34.4465012 -21.61132812 36.52929688 C-21.61197266 37.84865234 -21.61261719 39.16800781 -21.61328125 40.52734375 C-21.61626221 41.73253662 -21.61924316 42.93772949 -21.62231445 44.17944336 C-21.18425307 48.01283957 -19.99814119 50.68935881 -17.25 53.4375 C-12.00725882 53.96823291 -12.00725882 53.96823291 -7.3125 52.1875 C-3.85066712 46.48565761 -5.06572206 38.89579427 -5.0625 32.5 C-5.04413086 30.58670898 -5.04413086 30.58670898 -5.02539062 28.63476562 C-5.02345703 27.40564453 -5.02152344 26.17652344 -5.01953125 24.91015625 C-5.01542236 23.78875244 -5.01131348 22.66734863 -5.00708008 21.51196289 C-5.25371792 18.39044497 -5.84030433 16.22100136 -7.25 13.4375 C-11.23989891 10.64457076 -15.22793064 10.75612043 -19.25 13.4375 Z " fill="#000000" transform="translate(300.25,223.5625)"/>
<path d="M0 0 C0.75925781 -0.02578125 1.51851562 -0.0515625 2.30078125 -0.078125 C5.65137855 0.38251358 7.09745669 1.00031494 9.6875 3.25 C11.31310397 6.49878588 12.32266767 9.90495672 13.375 13.375 C13.86613281 14.92344604 13.86613281 14.92344604 14.3671875 16.50317383 C15.28724844 19.42475211 16.18858809 22.35141819 17.08294678 25.28094482 C17.95131886 28.10926906 18.83788171 30.93182379 19.72261047 33.75506592 C20.6565428 36.74191457 21.5817973 39.73139183 22.50405884 42.72186279 C22.95812076 44.19387903 23.41365702 45.66544133 23.87069702 47.13653564 C24.51500421 49.21773541 25.149513 51.30167381 25.78125 53.38671875 C26.14927734 54.59030029 26.51730469 55.79388184 26.89648438 57.03393555 C27.61925067 59.97251593 28.01268916 62.25092316 27.6875 65.25 C25.46561679 67.90192512 23.83599875 69.12900431 20.3515625 69.49609375 C18.11566414 69.4996204 15.91606064 69.42478907 13.6875 69.25 C13.01718281 67.2929132 12.35135317 65.33428887 11.6875 63.375 C11.31625 62.28445313 10.945 61.19390625 10.5625 60.0703125 C9.6875 57.25 9.6875 57.25 9.6875 55.25 C3.4175 55.25 -2.8525 55.25 -9.3125 55.25 C-9.60125 56.8175 -9.89 58.385 -10.1875 60 C-10.81782888 63.42178534 -11.61816082 66.2030371 -13.3125 69.25 C-18.10215564 69.71957408 -21.29844413 69.8663869 -25.5 67.3125 C-27.48085308 63.96554134 -27.52099214 63.77603617 -26.63427734 60.28833008 C-26.333815 59.09042343 -26.333815 59.09042343 -26.02728271 57.86831665 C-24.7226457 53.08930793 -23.3782812 48.32576719 -21.9765625 43.57421875 C-21.65593842 42.48663773 -21.33531433 41.3990567 -21.00497437 40.27851868 C-20.32942908 37.99460696 -19.65195831 35.71126396 -18.97265625 33.4284668 C-18.28039949 31.09389619 -17.59390754 28.75760872 -16.91308594 26.41967773 C-15.92590389 23.02986182 -14.92197991 19.64541901 -13.9140625 16.26171875 C-13.46228134 14.69450325 -13.46228134 14.69450325 -13.00137329 13.09562683 C-12.70781952 12.12394058 -12.41426575 11.15225433 -12.11181641 10.15112305 C-11.73447861 8.87279854 -11.73447861 8.87279854 -11.34951782 7.56864929 C-9.00504079 2.32667573 -5.56645241 0.11226459 0 0 Z M-0.3125 21.25 C-1.1522028 24.16496831 -1.98446003 27.0817186 -2.8125 30 C-3.05097656 30.825 -3.28945313 31.65 -3.53515625 32.5 C-3.76074219 33.29921875 -3.98632812 34.0984375 -4.21875 34.921875 C-4.42822266 35.6550293 -4.63769531 36.38818359 -4.85351562 37.14355469 C-5.45443318 39.54207091 -5.45443318 39.54207091 -5.3125 43.25 C-1.3525 43.25 2.6075 43.25 6.6875 43.25 C4.7075 35.99 2.7275 28.73 0.6875 21.25 C0.3575 21.25 0.0275 21.25 -0.3125 21.25 Z " fill="#000000" transform="translate(60.3125,220.75)"/>
<path d="M0 0 C4.43820135 -0.59035712 8.91019841 -0.47207989 13.38330078 -0.44604492 C15.5963469 -0.43760922 17.80674544 -0.46615309 20.01953125 -0.49804688 C27.50676119 -0.53677402 33.67022447 -0.45196821 40 4 C41.83984375 6 41.83984375 6 42.9375 8 C43.31777344 8.66 43.69804687 9.32 44.08984375 10 C47.25717461 16.95997167 46.94427997 25.15633382 44.5625 32.3125 C42.15951486 37.70205239 38.29531475 40.58005009 33 43 C28.89062345 44.1445579 24.93657091 44.10221094 20.6875 44.0625 C19.43324219 44.05347656 18.17898437 44.04445313 16.88671875 44.03515625 C15.93410156 44.02355469 14.98148438 44.01195312 14 44 C14.01571045 44.62044189 14.0314209 45.24088379 14.04760742 45.88012695 C14.10996214 48.69082528 14.14899148 51.50137812 14.1875 54.3125 C14.21263672 55.28896484 14.23777344 56.26542969 14.26367188 57.27148438 C14.27333984 58.20927734 14.28300781 59.14707031 14.29296875 60.11328125 C14.3086792 60.97735596 14.32438965 61.84143066 14.34057617 62.73168945 C13.92668098 65.48832045 13.20746678 66.34861516 11 68 C8.625 68.3984375 8.625 68.3984375 6 68.375 C4.700625 68.38660156 4.700625 68.38660156 3.375 68.3984375 C0.45678892 67.90886919 -0.2463999 67.35855623 -2 65 C-2.3742218 62.30566406 -2.3742218 62.30566406 -2.37231445 59.015625 C-2.37854324 57.78424805 -2.38477203 56.55287109 -2.39118958 55.28417969 C-2.38250146 53.93944901 -2.37318347 52.59472228 -2.36328125 51.25 C-2.36276256 49.87141928 -2.3632806 48.49283781 -2.36479187 47.11425781 C-2.36470218 44.22579905 -2.3542788 41.33761957 -2.33618164 38.44921875 C-2.31349431 34.74680868 -2.31295057 31.04480664 -2.31969929 27.34234619 C-2.32304084 24.4958941 -2.31640571 21.64953503 -2.30657005 18.80310059 C-2.30272096 17.43795254 -2.30156864 16.07279415 -2.3031559 14.7076416 C-2.30352675 12.79986245 -2.28942576 10.89209703 -2.2746582 8.984375 C-2.27005081 7.89866211 -2.26544342 6.81294922 -2.26069641 5.69433594 C-2 3 -2 3 0 0 Z M14 13 C14 19.27 14 25.54 14 32 C22.06598276 32.57764397 22.06598276 32.57764397 29 29 C30.7196266 25.5607468 30.38219964 21.76835438 30 18 C28.27310955 14.71068486 27.5579199 14.1859733 24 13 C22.27204648 12.93197033 20.54164635 12.91504355 18.8125 12.9375 C16.4303125 12.9684375 16.4303125 12.9684375 14 13 Z " fill="#000000" transform="translate(153,222)"/>
<path d="M0 0 C1.43532203 -0.01147094 2.87060306 -0.03184496 4.30566406 -0.06152344 C19.13035103 -0.36808755 19.13035103 -0.36808755 26.04394531 4.29516602 C30.98232392 9.23354463 32.3352262 14.75107097 32.41894531 21.60766602 C32.29462106 28.86820265 30.81645915 34.28500813 25.85644531 39.67016602 C17.41616557 44.54677209 9.67933088 44.66523061 0.04394531 44.29516602 C0.05965576 44.91560791 0.07536621 45.5360498 0.09155273 46.17529297 C0.15390746 48.98599129 0.19293679 51.79654413 0.23144531 54.60766602 C0.25658203 55.58413086 0.28171875 56.5605957 0.30761719 57.56665039 C0.31728516 58.50444336 0.32695313 59.44223633 0.33691406 60.40844727 C0.35262451 61.27252197 0.36833496 62.13659668 0.38452148 63.02685547 C-0.02943428 65.7838899 -0.74994818 66.64182515 -2.95605469 68.29516602 C-5.33105469 68.72875977 -5.33105469 68.72875977 -7.95605469 68.73266602 C-8.82230469 68.75200195 -9.68855469 68.77133789 -10.58105469 68.79125977 C-12.95605469 68.29516602 -12.95605469 68.29516602 -14.58221436 66.63380432 C-16.31356773 63.6865846 -16.32435721 61.7892988 -16.3125 58.38085938 C-16.3155011 57.18959946 -16.3185022 55.99833954 -16.32159424 54.77098083 C-16.30924744 53.48861038 -16.29690063 52.20623993 -16.28417969 50.88500977 C-16.28230652 49.56602188 -16.28043335 48.247034 -16.27850342 46.88807678 C-16.27390691 44.0997386 -16.25950583 41.31169027 -16.23730469 38.5234375 C-16.20899537 34.95004863 -16.19808956 31.37688755 -16.19362259 27.80339718 C-16.18846626 24.39306627 -16.17392819 20.98281357 -16.15917969 17.57250977 C-16.15492981 16.28811508 -16.15067993 15.0037204 -16.14630127 13.68040466 C-16.13669373 12.49229691 -16.12708618 11.30418915 -16.1171875 10.08007812 C-16.1103595 9.03291122 -16.10353149 7.98574432 -16.09649658 6.90684509 C-15.95605469 4.29516602 -15.95605469 4.29516602 -14.95605469 1.29516602 C-10.61334811 -0.87618728 -4.82259509 0.02681652 0 0 Z M0.04394531 13.29516602 C0.04394531 19.56516602 0.04394531 25.83516602 0.04394531 32.29516602 C6.67242908 32.64130809 6.67242908 32.64130809 13.04394531 31.23266602 C15.9057907 28.4602533 16.44780217 26.20321551 17.04394531 22.29516602 C16.39512941 18.9213233 15.80176517 17.02383896 13.31738281 14.63500977 C10.45067804 12.94552568 8.59561355 12.98974929 5.29394531 13.10766602 C3.56144531 13.16954102 1.82894531 13.23141602 0.04394531 13.29516602 Z " fill="#000000" transform="translate(110.9560546875,221.704833984375)"/>
<path d="M0 0 C0.87885361 -0.00287018 1.75770721 -0.00574036 2.66319275 -0.00869751 C4.52001592 -0.01073828 6.37686058 -0.00520749 8.23364258 0.00732422 C11.08268013 0.02339709 13.93030315 0.00746639 16.77929688 -0.01171875 C18.58203439 -0.0097367 20.38477103 -0.00589381 22.1875 0 C23.47032616 -0.00910904 23.47032616 -0.00910904 24.77906799 -0.0184021 C27.17602539 0.01025391 27.17602539 0.01025391 31.02734375 0.3984375 C33.48546 4.08561188 33.33852539 6.04189454 33.02734375 10.3984375 C32.36734375 11.3884375 31.70734375 12.3784375 31.02734375 13.3984375 C28.32177734 13.73901367 28.32177734 13.73901367 24.92578125 13.69140625 C23.7140625 13.68173828 22.50234375 13.67207031 21.25390625 13.66210938 C19.98289062 13.63697266 18.711875 13.61183594 17.40234375 13.5859375 C16.12359375 13.57240234 14.84484375 13.55886719 13.52734375 13.54492188 C10.36049906 13.50947212 7.19386978 13.45566387 4.02734375 13.3984375 C4.02734375 18.3484375 4.02734375 23.2984375 4.02734375 28.3984375 C5.15914063 28.36363281 6.2909375 28.32882813 7.45703125 28.29296875 C8.93878728 28.26483414 10.42055931 28.23753363 11.90234375 28.2109375 C13.02189453 28.17323242 13.02189453 28.17323242 14.1640625 28.13476562 C16.33203125 28.10546875 16.33203125 28.10546875 20.02734375 28.3984375 C22.34066861 31.86842479 22.36691938 33.32352998 22.02734375 37.3984375 C21.36734375 38.3884375 20.70734375 39.3784375 20.02734375 40.3984375 C17.23881485 40.61951537 14.68081194 40.67951285 11.90234375 40.5859375 C10.77119141 40.56563477 10.77119141 40.56563477 9.6171875 40.54492188 C7.75360248 40.50953735 5.89038397 40.45572917 4.02734375 40.3984375 C4.02734375 45.3484375 4.02734375 50.2984375 4.02734375 55.3984375 C5.95320313 55.36363281 7.8790625 55.32882812 9.86328125 55.29296875 C12.3762934 55.26483802 14.88931493 55.2375371 17.40234375 55.2109375 C18.67335938 55.18580078 19.944375 55.16066406 21.25390625 55.13476562 C23.07148438 55.12026367 23.07148438 55.12026367 24.92578125 55.10546875 C26.04645996 55.0897583 27.16713867 55.07404785 28.32177734 55.05786133 C29.66103271 55.22644653 29.66103271 55.22644653 31.02734375 55.3984375 C33.48546 59.08561188 33.33852539 61.04189454 33.02734375 65.3984375 C32.36734375 66.3884375 31.70734375 67.3784375 31.02734375 68.3984375 C28.01168386 68.70239308 25.20519828 68.81830295 22.1875 68.796875 C21.30960312 68.79974518 20.43170624 68.80261536 19.52720642 68.80557251 C17.66860307 68.80761599 15.80997835 68.80206635 13.95141602 68.78955078 C11.10449094 68.77351998 8.25898971 68.78937971 5.41210938 68.80859375 C3.60806978 68.80661099 1.80403107 68.80276664 0 68.796875 C-0.85319321 68.80294769 -1.70638641 68.80902039 -2.58543396 68.8152771 C-8.45243927 68.74541453 -8.45243927 68.74541453 -10.69718933 67.24819946 C-12.52254675 64.60095187 -12.35380598 62.61366915 -12.36083984 59.4140625 C-12.37029633 58.18268555 -12.37975281 56.95130859 -12.38949585 55.68261719 C-12.38412614 54.33788736 -12.37797319 52.99316046 -12.37109375 51.6484375 C-12.37311472 50.2698552 -12.37602635 48.89127395 -12.37979126 47.51269531 C-12.3842136 44.62424536 -12.37778683 41.73607383 -12.36376953 38.84765625 C-12.34667724 35.14513996 -12.35651897 31.44327604 -12.37448692 27.74078369 C-12.38532746 24.89431848 -12.38187728 22.04800795 -12.37410355 19.20153809 C-12.37210226 17.83638431 -12.37455833 16.47121648 -12.38154221 15.1060791 C-12.38916015 13.1983263 -12.37549031 11.29052426 -12.36083984 9.3828125 C-12.35845306 8.29709961 -12.35606628 7.21138672 -12.35360718 6.09277344 C-11.97265625 3.3984375 -11.97265625 3.3984375 -10.69718933 1.54867554 C-7.54284893 -0.55522282 -3.67080123 -0.02612732 0 0 Z " fill="#000000" transform="translate(390.97265625,221.6015625)"/>
<path d="M0 0 C0.79921875 0.01804688 1.5984375 0.03609375 2.421875 0.0546875 C3.02515625 0.07789063 3.6284375 0.10109375 4.25 0.125 C9.11362849 14.97309659 13.15039986 30.05289572 17.25 45.125 C19.38425224 39.64161944 21.16583203 34.18282698 22.6953125 28.50390625 C22.91065643 27.71853989 23.12600037 26.93317352 23.34786987 26.12400818 C24.02712556 23.64612453 24.70160784 21.16698305 25.375 18.6875 C26.26959221 15.39606989 27.16867089 12.10591121 28.0703125 8.81640625 C28.27447784 8.05920792 28.47864319 7.30200958 28.68899536 6.52186584 C30.13731815 1.23768185 30.13731815 1.23768185 31.25 0.125 C35.98501587 -0.55981634 39.30441831 -0.44976534 43.4375 2.0625 C45.41835308 5.40945866 45.45849214 5.59896383 44.57177734 9.08666992 C44.37146912 9.88527435 44.17116089 10.68387878 43.96478271 11.50668335 C42.6601457 16.28569207 41.3157812 21.04923281 39.9140625 25.80078125 C39.59343842 26.88836227 39.27281433 27.9759433 38.94247437 29.09648132 C38.26692908 31.38039304 37.58945831 33.66373604 36.91015625 35.9465332 C36.21789949 38.28110381 35.53140754 40.61739128 34.85058594 42.95532227 C33.86340389 46.34513818 32.85947991 49.72958099 31.8515625 53.11328125 C31.39978134 54.68049675 31.39978134 54.68049675 30.93887329 56.27937317 C30.64531952 57.25105942 30.35176575 58.22274567 30.04931641 59.22387695 C29.79775787 60.07609329 29.54619934 60.92830963 29.28701782 61.80635071 C27.76006186 65.22044377 25.59211092 67.45394454 22.25 69.125 C20.26171875 69.328125 20.26171875 69.328125 17.9375 69.375 C17.17824219 69.40078125 16.41898437 69.4265625 15.63671875 69.453125 C12.28612145 68.99248642 10.84004331 68.37468506 8.25 66.125 C6.62440471 62.87623147 5.61441516 59.47016284 4.5625 56 C4.07245483 54.44937866 4.07245483 54.44937866 3.57250977 52.86743164 C2.85063255 50.56908343 2.13784465 48.26786701 1.43261719 45.96435547 C0.37900728 42.52440525 -0.71282451 39.09748805 -1.81089783 35.67150879 C-2.7586049 32.70538069 -3.69177325 29.73481095 -4.62149048 26.76300049 C-5.07971347 25.3038022 -5.54205461 23.84589031 -6.00863647 22.38934326 C-6.66728423 20.32493552 -7.30652411 18.25541535 -7.94140625 16.18359375 C-8.31467041 14.99048584 -8.68793457 13.79737793 -9.07250977 12.56811523 C-9.82722561 8.73252694 -9.62247645 5.92202459 -8.75 2.125 C-6.00499841 -0.09772252 -3.44573487 -0.10134514 0 0 Z " fill="#000000" transform="translate(326.75,221.875)"/>
<path d="M0 0 C2.38527062 1.9082165 3.29939676 2.84348031 4.1875 5.75 C4.63958548 10.72294029 4.34486025 13.80329969 1.1875 17.75 C-2.55974947 20.07505244 -5.34875002 20.01981435 -9.6171875 19.4140625 C-13.60154611 18.20882947 -14.74783693 16.34650987 -16.8125 12.75 C-17.36513322 8.81248833 -17.17470775 6.56496744 -15.5625 2.9375 C-11.49337365 -2.14890794 -5.89510975 -2.62004878 0 0 Z " fill="#000000" transform="translate(169.8125,407.25)"/>
<path d="M0 0 C2.6258382 1.78870171 3.34201385 3.11189509 5 6 C5.55263322 9.93751167 5.36220775 12.18503256 3.75 15.8125 C1.8417835 18.19777062 0.90651969 19.11189676 -2 20 C-6.97294029 20.45208548 -10.05329969 20.15736025 -14 17 C-16.57189679 13.57080428 -16.502142 10.16060514 -16 6 C-11.884898 -0.85340408 -7.44614247 -2.06694644 0 0 Z " fill="#000000" transform="translate(354,86)"/>
</svg>
